<svg width="75" height="23" viewBox="0 0 75 23" fill="none" xmlns="http://www.w3.org/2000/svg">
<path d="M6 15.0921C6.03092 14.5765 6.06184 13.811 6.06184 13.1392V4.00073H7.40652V8.74988H7.43744C7.91667 7.90624 8.78237 7.35943 9.98792 7.35943C11.843 7.35943 13.1568 8.92149 13.1413 11.2181C13.1413 13.9206 11.4563 15.2642 9.78696 15.2642C8.70483 15.2642 7.83937 14.8424 7.28285 13.8425H7.23647L7.17464 15.0923H6V15.0921ZM7.40652 12.0615C7.40652 12.2333 7.43744 12.4052 7.46836 12.5614C7.73116 13.5144 8.51956 14.1706 9.50869 14.1706C10.9309 14.1706 11.7812 12.9988 11.7812 11.2649C11.7812 9.74951 11.0082 8.4528 9.55531 8.4528C8.62778 8.4528 7.76208 9.09334 7.48382 10.1401C7.4529 10.2963 7.40652 10.4838 7.40652 10.7025V12.0615Z" fill="#13121C"/>
<path d="M19.3503 15.092L19.2421 14.139H19.1957C18.7783 14.7327 17.9745 15.2639 16.9078 15.2639C15.3931 15.2639 14.6201 14.1859 14.6201 13.0923C14.6201 11.2646 16.2278 10.2648 19.1184 10.2804V10.1242C19.1184 9.49924 18.9484 8.37463 17.4182 8.37463C16.7225 8.37463 15.996 8.59335 15.4706 8.93705L15.1614 8.03116C15.7798 7.62497 16.6762 7.35938 17.6192 7.35938C19.9071 7.35938 20.4634 8.93705 20.4634 10.4525V13.28C20.4634 13.9362 20.4943 14.5765 20.587 15.092H19.3503ZM19.1493 11.2334C17.6653 11.2021 15.9805 11.4677 15.9805 12.9361C15.9805 13.8266 16.5679 14.2481 17.2636 14.2481C18.2375 14.2481 18.8556 13.6232 19.072 12.9829C19.1184 12.8423 19.1493 12.6861 19.1493 12.5455V11.2334Z" fill="#13121C"/>
<path d="M22.8845 4H24.2446V15.0916H22.8845V4Z" fill="#13121C"/>
<path d="M26.4966 13.6862C26.8985 13.9518 27.6094 14.233 28.2896 14.233C29.279 14.233 29.7427 13.7331 29.7427 13.1081C29.7427 12.452 29.3562 12.0927 28.3514 11.7177C27.0067 11.2336 26.3729 10.4837 26.3729 9.5776C26.3729 8.359 27.3468 7.35938 28.9546 7.35938C29.712 7.35938 30.3765 7.5781 30.7939 7.82807L30.4538 8.82794C30.1601 8.64046 29.619 8.39049 28.9236 8.39049C28.1198 8.39049 27.6715 8.85918 27.6715 9.42161C27.6715 10.0465 28.1195 10.3277 29.0934 10.7027C30.392 11.2026 31.0565 11.8588 31.0565 12.9836C31.0565 14.3114 30.0362 15.2487 28.2587 15.2487C27.4393 15.2487 26.6821 15.0456 26.1562 14.7334L26.4966 13.6862Z" fill="#13121C"/>
<path d="M37.3384 15.092L37.2301 14.139H37.1838C36.7664 14.7327 35.9625 15.2639 34.8961 15.2639C33.3813 15.2639 32.6084 14.1859 32.6084 13.0923C32.6084 11.2646 34.2161 10.2648 37.1067 10.2804V10.1242C37.1067 9.49924 36.9367 8.37463 35.4062 8.37463C34.7108 8.37463 33.9842 8.59335 33.4586 8.93705L33.1495 8.03116C33.7678 7.62497 34.6644 7.35938 35.6072 7.35938C37.8951 7.35938 38.4514 8.93705 38.4514 10.4525V13.28C38.4514 13.9362 38.4823 14.5765 38.5751 15.092H37.3384ZM37.1374 11.2334C35.6533 11.2021 33.9685 11.4677 33.9685 12.9361C33.9685 13.8266 34.556 14.2481 35.2516 14.2481C36.2253 14.2481 36.8439 13.6232 37.0601 12.9829C37.1065 12.8423 37.1374 12.6861 37.1374 12.5455V11.2334Z" fill="#13121C"/>
<path d="M40.8616 9.5776C40.8616 8.79645 40.8462 8.1559 40.7998 7.53123H41.9901L42.052 8.74982H42.0981C42.5157 8.03116 43.2112 7.35938 44.4479 7.35938C45.4682 7.35938 46.2411 7.9843 46.5657 8.87481H46.5967C46.8285 8.45298 47.1223 8.1249 47.4314 7.89056C47.8795 7.54685 48.3742 7.35938 49.0853 7.35938C50.0747 7.35938 51.5433 8.01554 51.5433 10.64V15.0923H50.2138V10.8116C50.2138 9.35863 49.6882 8.48399 48.5906 8.48399C47.8179 8.48399 47.215 9.06204 46.9831 9.73383C46.9213 9.9213 46.8749 10.1713 46.8749 10.421V15.092H45.5457V10.5616C45.5457 9.35863 45.0201 8.48399 43.9843 8.48399C43.1341 8.48399 42.516 9.17116 42.2993 9.85857C42.2223 10.0617 42.1911 10.296 42.1911 10.5304V15.092H40.8619V9.5776H40.8616Z" fill="#13121C"/>
<path d="M55.4915 5.40663C55.5067 5.87532 55.1669 6.25027 54.6258 6.25027C54.1468 6.25027 53.8065 5.87532 53.8065 5.40663C53.8065 4.92232 54.162 4.54736 54.6567 4.54736C55.1668 4.54736 55.4915 4.92232 55.4915 5.40663ZM53.9765 15.0922V7.53111H55.3369V15.0922H53.9765Z" fill="#13121C"/>
<path d="M62.9721 13.9205H62.9412C62.5393 14.6704 61.7047 15.2641 60.4989 15.2641C58.7523 15.2641 57.3301 13.7333 57.3301 11.4367C57.3301 8.60921 59.1385 7.35938 60.7156 7.35938C61.8748 7.35938 62.6477 7.93743 63.0187 8.67146H63.0496L63.0958 7.53123H64.3789C64.348 8.17177 64.3327 8.82794 64.3327 9.60884V18.1851H62.9723V13.9205H62.9721ZM62.9721 10.5931C62.9721 10.4056 62.9569 10.1869 62.9103 10.015C62.7093 9.1714 61.9827 8.45274 60.9627 8.45274C59.5562 8.45274 58.7057 9.65571 58.7057 11.3584C58.7057 12.8582 59.4168 14.1705 60.9161 14.1705C61.7972 14.1705 62.5547 13.6237 62.8636 12.6707C62.9255 12.4832 62.9719 12.2176 62.9719 12.0145V10.5931H62.9721Z" fill="#13121C"/>
<path d="M68.33 8.47617C68.33 9.13233 67.8024 9.65888 67.1331 9.65888C66.4636 9.65888 65.9293 9.13258 65.9293 8.47617C65.9293 7.82684 66.4636 7.30078 67.1331 7.30078C67.8027 7.30078 68.33 7.82684 68.33 8.47617ZM66.2877 8.483C66.2877 8.97513 66.6459 9.36472 67.1331 9.36472C67.6201 9.36472 67.9785 8.97488 67.9785 8.47592C67.9785 7.99063 67.6201 7.5942 67.1264 7.5942C66.6462 7.59444 66.2877 7.99088 66.2877 8.483ZM66.9843 9.03664H66.6529V7.94987C66.7273 7.9362 66.9032 7.91569 67.1264 7.91569C67.3698 7.91569 67.478 7.94987 67.5592 7.99771C67.6268 8.04556 67.6742 8.12758 67.6742 8.23694C67.6742 8.3463 67.5727 8.44199 67.4239 8.483V8.49667C67.5459 8.53768 67.6133 8.6197 67.6474 8.77691C67.6812 8.93412 67.7015 8.99563 67.7218 9.0364H67.3498C67.316 8.99539 67.2957 8.8997 67.2754 8.80425C67.2551 8.69489 67.2008 8.63996 67.0928 8.63996H66.9846V9.03664H66.9843ZM66.9979 8.41465H67.0928C67.2145 8.41465 67.2957 8.36705 67.2957 8.28503C67.2957 8.19617 67.221 8.14808 67.1063 8.14808C67.0657 8.14808 67.0252 8.15492 66.9981 8.15492V8.41465H66.9979Z" fill="#13121C"/>
</svg>
