<svg width="75" height="23" viewBox="0 0 75 23" fill="none" xmlns="http://www.w3.org/2000/svg">
<path d="M23.456 16.3537V13.0451H19.6761V16.3537C19.6761 16.573 19.4871 16.7447 19.2457 16.7447H17.6707C17.4292 16.7447 17.2402 16.573 17.2402 16.3537V7.6293C17.2402 7.41 17.4292 7.23837 17.6707 7.23837H19.2457C19.4871 7.23837 19.6761 7.41 19.6761 7.6293V10.8902H23.456V7.6293C23.456 7.41 23.645 7.23837 23.8865 7.23837H25.4404C25.6714 7.23837 25.8709 7.41 25.8709 7.6293V16.3537C25.8709 16.573 25.6819 16.7447 25.4404 16.7447H23.8865C23.645 16.7447 23.456 16.573 23.456 16.3537ZM54.9336 16.8686C57.548 16.8686 59.1229 15.2953 59.1229 13.0356V7.6293C59.1229 7.41 58.9339 7.23837 58.6924 7.23837H57.0965C56.8655 7.23837 56.666 7.41 56.666 7.6293V13.0737C56.666 14.1893 55.8891 14.7423 54.9336 14.7423C53.9782 14.7423 53.2012 14.1893 53.2012 13.0737V7.6293C53.2012 7.41 53.0122 7.23837 52.7707 7.23837H51.1748C50.9333 7.23837 50.7443 7.41 50.7443 7.6293V13.0356C50.7443 15.2953 52.3192 16.8686 54.9336 16.8686ZM61.2438 15.1047C61.0548 15.2667 61.0653 15.5337 61.2648 15.6863C62.3358 16.4872 63.7007 16.9163 65.0867 16.8686C67.932 16.8495 68.919 15.0379 68.9925 14.0749C69.0765 12.7972 68.4885 11.5577 65.5067 10.957C64.1102 10.6709 63.4697 10.4326 63.4697 9.87954C63.4697 9.40279 64.0577 9.10721 64.7612 9.10721C65.5801 9.10721 66.3676 9.40279 66.9661 9.91767C67.1341 10.0607 67.3861 10.0607 67.5541 9.91767L68.5725 9.04046C68.751 8.88791 68.751 8.63047 68.5725 8.47791C67.5436 7.61023 66.1996 7.11442 64.7927 7.10488C62.6088 7.10488 61.0128 8.43977 61.0128 10.0035C61.0128 11.5672 62.4828 12.4063 64.6982 12.8449C66.0841 13.1214 66.5146 13.4074 66.5146 13.8651C66.5146 14.3133 66.0841 14.7709 65.1182 14.7709C64.3202 14.79 63.5327 14.5707 62.8818 14.1607C62.7138 14.0558 62.4933 14.0653 62.3463 14.1893L61.2438 15.1047ZM46.9645 13.0642C48.0669 12.616 48.7704 11.6244 48.7809 10.5279C48.7809 8.34442 47.2164 7.24791 44.875 7.24791H41.0112C40.7802 7.24791 40.5807 7.41953 40.5807 7.63884V16.3633C40.5807 16.5826 40.7697 16.7542 41.0112 16.7542H42.5651C42.8066 16.7542 42.9956 16.5826 42.9956 16.3633V13.5409H44.6546L46.324 16.5444C46.3975 16.6779 46.5445 16.7542 46.702 16.7542H48.4344C48.7599 16.7542 48.9699 16.4395 48.8124 16.1821L46.9645 13.0642ZM44.875 11.5195H42.9956V9.29791H44.875C45.799 9.29791 46.324 9.6793 46.324 10.4135C46.324 11.1858 45.799 11.5195 44.875 11.5195ZM13.9224 13.9986C13.7544 13.846 13.4919 13.846 13.3239 13.9891C12.7989 14.4563 12.085 14.7137 11.35 14.6947C9.71207 14.7042 8.39963 13.4837 8.44163 11.9963C8.39963 10.4993 9.72257 9.2693 11.371 9.2693C12.106 9.2407 12.8094 9.49814 13.3344 9.96535C13.5024 10.1179 13.7649 10.1179 13.9329 9.96535L15.0458 8.95465C15.2138 8.80209 15.2138 8.54465 15.0353 8.39209C13.7334 7.29558 11.917 6.85698 10.1846 7.2193C8.45213 7.58163 7.02419 8.68767 6.37322 10.1847C5.72225 11.6816 5.93224 13.3788 6.9297 14.7137C7.92715 16.0486 9.58608 16.8495 11.3605 16.8591C12.7254 16.8781 14.0484 16.4109 15.0353 15.5528C15.2033 15.4002 15.2138 15.1523 15.0353 14.9998L13.9224 13.9986ZM33.2206 7C30.9946 7 28.9892 8.22046 28.1388 10.0893C27.2883 11.9581 27.7608 14.1035 29.3357 15.5337C30.9107 16.964 33.273 17.393 35.331 16.6207C37.3889 15.8484 38.7223 14.0272 38.7223 12.0058C38.7223 9.23116 36.2549 7 33.2206 7ZM30.2492 12.6351C30.2492 12.8544 30.0602 13.026 29.8187 13.026C29.5877 13.026 29.3882 12.8544 29.3882 12.6351V11.3574C29.3882 10.8426 30.2387 10.8426 30.2387 11.3574V12.6351H30.2492ZM31.6351 13.9414C31.6351 14.1607 31.4461 14.3323 31.2046 14.3323C30.9737 14.3323 30.7742 14.1607 30.7742 13.9414V10.0512C30.7742 9.53628 31.6246 9.53628 31.6246 10.0512V13.9414H31.6351ZM33.0316 15.076C33.0316 15.5909 32.1811 15.5909 32.1811 15.076V8.90698C32.1811 8.69721 32.3701 8.51605 32.6116 8.51605C32.8531 8.51605 33.0421 8.68767 33.0421 8.90698V15.076H33.0316ZM34.4175 13.8937C34.4175 14.4086 33.567 14.4086 33.567 13.8937V10.0893C33.567 9.57442 34.4175 9.57442 34.4175 10.0893V13.8937ZM35.8139 14.4849C35.8139 14.6947 35.6249 14.8758 35.3835 14.8758C35.1525 14.8758 34.953 14.7042 34.953 14.4849V9.50767C34.953 8.99279 35.8034 8.99279 35.8034 9.50767V14.4849H35.8139ZM37.1999 12.5779C37.1999 13.0928 36.3494 13.0928 36.3494 12.5779V11.4051C36.3494 11.1953 36.5384 11.0142 36.7799 11.0142C37.0109 11.0142 37.2104 11.1858 37.2104 11.4051V12.5779H37.1999Z" fill="#13121C"/>
</svg>
