<svg width="16" height="16" viewBox="0 0 16 16" fill="none" xmlns="http://www.w3.org/2000/svg">
<g clip-path="url(#clip0)">
<path d="M8.00041 10.6654C9.47317 10.6654 10.6671 9.47146 10.6671 7.9987C10.6671 6.52594 9.47317 5.33203 8.00041 5.33203C6.52765 5.33203 5.33374 6.52594 5.33374 7.9987C5.33374 9.47146 6.52765 10.6654 8.00041 10.6654Z" fill="#4557F6"/>
<path d="M4.20142 6.754C4.72676 5.15667 6.22942 4 8.00009 4H14.8348C13.4488 1.61267 10.8708 0 7.91676 0C5.51342 0 3.35942 1.07 1.89209 2.75333L4.20142 6.754Z" fill="#4557F6"/>
<path d="M8.81875 11.9142C8.55408 11.9695 8.28075 11.9988 8.00008 11.9988C6.52208 11.9988 5.23275 11.1915 4.54008 9.99683L4.53608 9.99883L1.03608 3.9375C0.330081 5.1295 -0.083252 6.5155 -0.083252 7.99883C-0.083252 11.9382 2.78075 15.2128 6.53408 15.8708L8.81875 11.9142Z" fill="#4557F6"/>
<path d="M10.9734 5.33203C11.6094 6.0407 12 6.97336 12 7.9987C12 8.7267 11.8014 9.40803 11.46 9.9967L11.464 9.9987L8.00269 15.994C12.374 15.9474 15.9167 12.3807 15.9167 7.9987C15.9167 7.0627 15.7467 6.16736 15.45 5.33203H10.9734Z" fill="#4557F6"/>
</g>
<defs>
<clipPath id="clip0">
<rect width="16" height="16" fill="white"/>
</clipPath>
</defs>
</svg>
