<svg width="75" height="23" viewBox="0 0 75 23" fill="none" xmlns="http://www.w3.org/2000/svg">
<path d="M40.3542 9.42153C39.3342 9.3082 38.4502 9.62553 37.7022 10.5322V10.2602V5.40954V5.36421V5.04688L35.0049 5.36421V18.1255H37.7022V17.3775C38.0649 17.6268 38.4275 17.9442 38.8355 18.1028C40.4222 18.6695 42.4849 18.2162 43.2102 16.1082C43.6862 14.7482 43.6635 13.3655 43.3235 12.0055C42.9382 10.4189 41.9182 9.5802 40.3542 9.42153ZM40.7622 14.9522C40.6489 15.7909 39.9689 16.2442 39.1755 16.1762C38.9715 16.1535 38.7902 16.1309 38.6315 16.0629C37.9969 15.7002 37.7929 15.0882 37.7475 14.7029C37.7022 14.1135 37.6569 12.8442 37.9515 12.2549C38.2009 11.8015 38.6315 11.5522 39.1982 11.5295C40.0142 11.5069 40.6262 11.9149 40.7622 12.7309C40.8755 13.4562 40.8755 14.2042 40.7622 14.9522Z" fill="#13121C"/>
<path d="M49.9654 9.5786C49.0134 9.32927 48.0841 9.32927 47.1321 9.5786C45.7267 9.96393 44.7747 10.8479 44.4801 12.2533C44.3214 13.0239 44.2761 13.8399 44.3214 14.6333C44.4121 16.4466 45.5454 17.7386 47.2681 18.1239L47.3361 18.1466H47.3587C47.4267 18.1693 47.4947 18.1692 47.5627 18.1919H47.6307C47.7214 18.2146 47.8121 18.2146 47.9254 18.2373C48.2654 18.2826 48.6961 18.3053 49.0587 18.2599H49.1041C50.8947 18.1693 52.2547 17.0359 52.6627 15.2906C52.8894 14.3386 52.8894 13.3866 52.6627 12.4346C52.3454 10.9386 51.4387 9.96393 49.9654 9.5786ZM50.0787 14.8146C50.0787 14.8599 50.0561 14.9279 50.0561 14.9733C49.8747 15.7666 49.2854 16.1973 48.5147 16.1746C47.6761 16.1293 47.1094 15.6533 47.0414 14.8146C46.9734 14.2026 46.9734 13.5906 47.0187 12.9786C47.0867 12.0266 47.6987 11.5053 48.6054 11.5053C49.3534 11.5279 49.8747 11.9359 50.0561 12.6386C50.2147 13.3639 50.0787 14.6333 50.0787 14.8146Z" fill="#13121C"/>
<path d="M9.32399 9.53368H7.39732V8.24168C7.53332 7.01768 9.55065 7.26702 9.55065 7.26702V7.17635V5.18169C9.48265 5.15902 5.56133 4.22969 4.79066 7.22168V7.24435C4.67733 7.60702 4.67733 9.32968 4.67733 9.53368H3V11.823H4.768V18.0337H7.35199V11.823H9.32399L9.55065 9.53368H9.32399V9.53368Z" fill="#13121C"/>
<path d="M15.489 10.6212C15.4663 10.5759 15.421 10.5532 15.3983 10.5306L15.3757 10.5079C15.3303 10.4626 15.3077 10.4399 15.3077 10.4399C14.6957 9.82789 14.469 9.66922 13.993 9.53322C12.157 8.98922 10.3663 9.96389 9.79967 11.7999C9.45968 12.9332 9.43701 14.1119 9.64101 15.2452C10.0717 17.7385 11.9303 18.5772 13.9023 18.1692C14.5143 18.0332 14.9677 17.6705 15.3757 17.1492C15.3757 17.1492 15.421 17.1039 15.4663 17.0132V18.1012H17.9823V9.53322H15.4663L15.489 10.6212ZM15.2623 14.9279C15.1717 15.7212 14.537 16.1972 13.789 16.1745C13.0183 16.1519 12.497 15.7212 12.3383 14.9732C12.1343 13.9079 12.3837 12.6612 12.3837 12.5479C12.5877 11.8452 13.109 11.4825 13.857 11.5052C14.605 11.5279 15.1717 11.9586 15.2623 12.7292C15.353 13.4545 15.353 14.2025 15.2623 14.9279Z" fill="#13121C"/>
<path d="M25.7355 17.4877C25.6221 17.057 25.4861 16.6264 25.3501 16.2184L25.2368 15.765C25.2368 15.765 22.0635 17.2837 21.5648 14.4051C21.5195 13.9291 21.5422 13.4304 21.5875 12.9544C21.7008 12.0704 22.2448 11.5944 23.1062 11.5037C23.4008 11.4811 23.6955 11.4811 23.9901 11.5491C24.3755 11.6171 24.7608 11.7304 25.1915 11.8437C25.3501 11.3904 25.4861 10.9371 25.6448 10.4837C25.6675 10.4157 25.6901 10.3477 25.6901 10.3024L25.7581 10.0304C25.7355 9.98506 25.6901 9.96239 25.6448 9.91706C25.5768 9.84906 25.4408 9.80373 25.2595 9.73573C25.1915 9.71306 25.1008 9.69039 25.0328 9.66773C24.9648 9.64506 24.9195 9.62239 24.9195 9.62239C24.0808 9.39573 23.2422 9.37306 22.3582 9.46372C20.5222 9.66772 19.2982 10.7331 18.9355 12.5237C18.7542 13.4531 18.7542 14.405 18.9808 15.357C19.2982 16.7624 20.1368 17.669 21.5422 18.077C22.4488 18.349 23.3782 18.349 24.3075 18.213C24.6928 18.145 25.2595 17.941 25.6448 17.805L25.8035 17.7597L25.7355 17.4877Z" fill="#13121C"/>
<path d="M34.0763 14.1358C34.0537 13.5464 34.0763 12.9571 33.9857 12.3678C33.759 10.7811 32.7843 9.76111 31.2203 9.48911C30.631 9.39844 29.9963 9.39844 29.3843 9.46644C27.707 9.62511 26.4377 10.6678 26.1883 12.2318C26.0297 13.1838 26.007 14.1811 26.143 15.1331C26.3243 16.5611 27.027 17.4904 28.251 17.9211H28.2737C28.8177 18.0798 31.515 18.7824 33.895 17.6038L33.8043 17.2638C33.691 16.7878 33.555 16.3344 33.4417 15.8811L33.419 15.8358C33.419 15.8358 33.3737 15.8584 33.283 15.8811C33.1697 15.9038 33.079 15.9491 32.9657 15.9718L32.9203 15.9944C32.5577 16.0851 32.0363 16.2211 31.4923 16.2891C31.039 16.3344 30.5857 16.3344 30.1097 16.2891C29.3617 16.1531 28.7723 15.7678 28.795 14.7931H29.2257C30.699 14.7931 32.195 14.7931 33.6683 14.7931C33.7137 14.7931 33.7363 14.7931 33.7817 14.7931H34.1217V14.7024L34.0763 14.1358ZM31.6283 12.9798H28.7043C28.727 12.3904 28.795 11.8464 29.3163 11.5291C29.8603 11.1891 30.4723 11.1664 31.039 11.4838C31.6057 11.7784 31.651 12.3451 31.6283 12.9798Z" fill="#13121C"/>
<path d="M71.0001 9.62399H68.1215L65.6281 13.5226V5.38533V5.34V5L62.9081 5.34V18.1013H65.6281V14.2026L68.1215 18.1013H71.0001L68.2801 13.8626L71.0001 9.62399Z" fill="#13121C"/>
<path d="M59.1906 9.5786C58.2386 9.32927 57.3092 9.32927 56.3572 9.5786C54.9519 9.96393 53.9999 10.8479 53.7052 12.2533C53.5466 13.0239 53.5012 13.8399 53.5466 14.6333C53.6372 16.4466 54.7706 17.7386 56.4932 18.1239L56.5612 18.1466H56.5839C56.6519 18.1693 56.7199 18.1692 56.7879 18.1919H56.8559C56.9466 18.2146 57.0372 18.2146 57.1506 18.2373C57.4906 18.2826 57.9212 18.3053 58.2839 18.2599H58.3292C60.1199 18.1693 61.4799 17.0359 61.8879 15.2906C62.1145 14.3386 62.1145 13.3866 61.8879 12.4346C61.5932 10.9386 60.6866 9.96393 59.1906 9.5786ZM59.3039 14.8146C59.3039 14.8599 59.2812 14.9279 59.2812 14.9733C59.0999 15.7666 58.5106 16.1973 57.7399 16.1746C56.9012 16.1293 56.3346 15.6533 56.2666 14.8146C56.1986 14.2026 56.1986 13.5906 56.2439 12.9786C56.3346 12.0266 56.9239 11.5053 57.8306 11.5053C58.5786 11.5279 59.0999 11.9359 59.2812 12.6386C59.4399 13.3639 59.3266 14.6333 59.3039 14.8146Z" fill="#13121C"/>
</svg>
