<svg width="75" height="23" viewBox="0 0 75 23" fill="none" xmlns="http://www.w3.org/2000/svg">
<g clip-path="url(#clip0)">
<path d="M75.0001 11.2385V9.92113H73.3622V7.87316L73.3071 7.89011L71.7686 8.36024L71.7383 8.36944V9.9212H69.3101V9.05674C69.3101 8.65422 69.4002 8.34618 69.5778 8.14076C69.7541 7.93779 70.0064 7.83461 70.3282 7.83461C70.5595 7.83461 70.799 7.88903 71.04 7.99634L71.1004 8.0233V6.63596L71.072 6.62552C70.8471 6.5448 70.5413 6.50415 70.1622 6.50415C69.6845 6.50415 69.2504 6.60799 68.8718 6.81378C68.4931 7.01986 68.1951 7.31405 67.9864 7.68809C67.7783 8.0617 67.6728 8.49321 67.6728 8.97073V9.92113H66.5323V11.2385H67.6728V16.7882H69.3101V11.2385H71.7383V14.7652C71.7383 16.2177 72.4243 16.9538 73.7771 16.9538C73.9994 16.9538 74.2334 16.9278 74.4723 16.8768C74.7155 16.8245 74.8811 16.7723 74.9787 16.7165L75.0002 16.7037V15.3742L74.9336 15.4182C74.8447 15.4773 74.7341 15.5256 74.6044 15.5616C74.4741 15.5982 74.3652 15.6165 74.2809 15.6165C73.964 15.6165 73.7295 15.5312 73.5841 15.3629C73.4369 15.193 73.3623 14.896 73.3623 14.4805V11.2385H75.0001ZM62.876 15.6167C62.2817 15.6167 61.8132 15.4199 61.483 15.0322C61.1508 14.6426 60.9824 14.0871 60.9824 13.3814C60.9824 12.6532 61.1508 12.0833 61.4831 11.6868C61.8135 11.2929 62.2776 11.093 62.8626 11.093C63.4303 11.093 63.8823 11.2839 64.206 11.6608C64.5313 12.0396 64.6964 12.6049 64.6964 13.3416C64.6964 14.0873 64.5412 14.6601 64.235 15.0433C63.9309 15.4235 63.4737 15.6167 62.876 15.6167V15.6167ZM62.9487 9.7557C61.815 9.7557 60.9145 10.0875 60.2724 10.7419C59.6307 11.3964 59.3054 12.3021 59.3054 13.434C59.3054 14.5092 59.623 15.374 60.2494 16.0041C60.8758 16.6344 61.7283 16.9536 62.783 16.9536C63.882 16.9536 64.7646 16.6172 65.4063 15.9537C66.0481 15.291 66.3732 14.3939 66.3732 13.2883C66.3732 12.1963 66.0681 11.3251 65.4661 10.6992C64.8639 10.0731 64.0168 9.7557 62.9487 9.7557V9.7557ZM56.6656 9.7557C55.8944 9.7557 55.2564 9.95272 54.7691 10.3412C54.2788 10.732 54.0301 11.2445 54.0301 11.8647C54.0301 12.1871 54.0838 12.4734 54.1894 12.7163C54.2957 12.96 54.4602 13.1746 54.6787 13.3546C54.8956 13.5332 55.2303 13.7203 55.6739 13.9107C56.0468 14.0639 56.3249 14.1936 56.5016 14.2957C56.6742 14.3959 56.7968 14.4965 56.866 14.5946C56.9333 14.6905 56.9674 14.8218 56.9674 14.9838C56.9674 15.4452 56.6214 15.6697 55.9096 15.6697C55.6456 15.6697 55.3444 15.6146 55.0146 15.5061C54.687 15.3992 54.3779 15.2426 54.0979 15.0419L54.03 14.9932V16.5675L54.0549 16.5791C54.2866 16.6859 54.5787 16.776 54.9229 16.8469C55.2665 16.9178 55.5787 16.9539 55.8499 16.9539C56.6868 16.9539 57.3607 16.7559 57.8525 16.3652C58.3474 15.9717 58.5982 15.4471 58.5982 14.8054C58.5982 14.3426 58.4632 13.9456 58.197 13.6255C57.9327 13.308 57.474 13.0164 56.8342 12.7588C56.3244 12.5544 55.9978 12.3848 55.8631 12.2546C55.7333 12.1288 55.6673 11.9509 55.6673 11.7256C55.6673 11.5259 55.7487 11.3659 55.9158 11.2364C56.0842 11.1062 56.3186 11.0399 56.6126 11.0399C56.8854 11.0399 57.1645 11.083 57.4421 11.1673C57.7194 11.2517 57.9631 11.3646 58.1664 11.5028L58.2333 11.5485V10.055L58.2076 10.044C58.02 9.96366 57.7726 9.8949 57.4721 9.8391C57.173 9.78367 56.9016 9.7557 56.6656 9.7557V9.7557ZM49.7618 15.6167C49.1677 15.6167 48.699 15.4199 48.3689 15.0322C48.0366 14.6426 47.8686 14.0873 47.8686 13.3814C47.8686 12.6532 48.0368 12.0833 48.3693 11.6868C48.6994 11.2929 49.1633 11.093 49.7487 11.093C50.3162 11.093 50.7681 11.2839 51.0919 11.6608C51.4173 12.0396 51.5824 12.6049 51.5824 13.3416C51.5824 14.0873 51.427 14.6601 51.1209 15.0433C50.8168 15.4235 50.3598 15.6167 49.7618 15.6167V15.6167ZM49.8348 9.7557C48.7008 9.7557 47.8002 10.0875 47.1584 10.7419C46.5168 11.3964 46.1913 12.3021 46.1913 13.434C46.1913 14.5097 46.509 15.374 47.1355 16.0041C47.7619 16.6344 48.6143 16.9536 49.669 16.9536C50.7678 16.9536 51.6506 16.6172 52.2924 15.9537C52.934 15.291 53.2592 14.3939 53.2592 13.2883C53.2592 12.1963 52.9541 11.3251 52.352 10.6992C51.7496 10.0731 50.9026 9.7557 49.8348 9.7557V9.7557ZM43.7059 11.1104V9.92113H42.0886V16.788H43.7059V13.2754C43.7059 12.6781 43.8415 12.1873 44.1091 11.8167C44.3733 11.4505 44.7253 11.2649 45.1551 11.2649C45.3008 11.2649 45.4643 11.2889 45.6414 11.3364C45.8167 11.3835 45.9436 11.4348 46.0185 11.4887L46.0865 11.5379V9.90939L46.0603 9.89816C45.9097 9.83425 45.6966 9.802 45.427 9.802C45.0206 9.802 44.6569 9.93243 44.3453 10.1892C44.0719 10.4149 43.8743 10.7244 43.7231 11.1104H43.7059ZM39.1923 9.7557C38.4503 9.7557 37.7885 9.9146 37.2256 10.2279C36.6615 10.5418 36.2252 10.9901 35.9284 11.5601C35.6329 12.1287 35.4829 12.7928 35.4829 13.5335C35.4829 14.1823 35.6283 14.7778 35.9159 15.3025C36.2035 15.8282 36.6107 16.2394 37.1261 16.5246C37.6408 16.8094 38.2356 16.9538 38.8942 16.9538C39.6629 16.9538 40.3191 16.8004 40.8452 16.4977L40.8665 16.4855V15.0056L40.7985 15.0552C40.5602 15.2286 40.2938 15.367 40.0073 15.4667C39.7214 15.5664 39.4608 15.6167 39.2323 15.6167C38.5976 15.6167 38.0882 15.4184 37.7184 15.0274C37.3478 14.6359 37.1599 14.0861 37.1599 13.3943C37.1599 12.6982 37.3559 12.1343 37.742 11.7182C38.1271 11.3034 38.6375 11.093 39.259 11.093C39.7905 11.093 40.3086 11.2727 40.7986 11.6278L40.8665 11.677V10.1177L40.8446 10.1054C40.6601 10.0023 40.4086 9.91714 40.0963 9.85258C39.7854 9.78816 39.4813 9.7557 39.1923 9.7557V9.7557ZM34.369 9.9212H32.7517V16.788H34.369V9.9212V9.9212ZM33.5769 6.99587C33.3107 6.99587 33.0785 7.08638 32.8878 7.26572C32.6962 7.44557 32.5991 7.67201 32.5991 7.93924C32.5991 8.20228 32.6951 8.42459 32.8848 8.59965C33.0733 8.77421 33.3062 8.86269 33.5769 8.86269C33.8476 8.86269 34.0814 8.77421 34.2721 8.59994C34.4641 8.42459 34.5615 8.20235 34.5615 7.93924C34.5615 7.68135 34.4667 7.45723 34.28 7.27296C34.0935 7.08906 33.8568 6.99587 33.5769 6.99587ZM29.5415 9.41455V16.788H31.1921V7.20608H28.9077L26.004 14.3233L23.1862 7.20608H20.8087V16.788H22.3598V9.41383H22.4131L25.3886 16.788H26.5592L29.4883 9.41455H29.5415V9.41455Z" fill="#13121C"/>
<path d="M7.60835 11.6035H0V4.00464H7.60835V11.6035Z" fill="#13121C"/>
<path d="M16.0091 11.603H8.40088V4.00415H16.0091V11.603Z" fill="#13121C"/>
<path d="M7.60813 19.9972H0V12.3984H7.60813V19.9972Z" fill="#13121C"/>
<path d="M16.0096 19.9972H8.40137V12.3984H16.0096V19.9972Z" fill="#13121C"/>
</g>
<defs>
<clipPath id="clip0">
<rect width="75" height="16" fill="white" transform="translate(0 4)"/>
</clipPath>
</defs>
</svg>
