<svg width="75" height="23" viewBox="0 0 75 23" fill="none" xmlns="http://www.w3.org/2000/svg">
<path d="M61.1694 6.58661C65.8848 6.58661 69 9.84804 69 14.7774C69 19.7067 65.8741 23 61.1694 23C56.2725 23 53.008 19.7067 53.008 14.7774C53.008 9.84804 56.2832 6.58661 61.1694 6.58661ZM36.0238 6.91593V22.66L32.5032 21.9376V7.60647L36.0238 6.91593ZM50.1275 6.54411V10.2411L48.1005 10.6129C46.3616 10.9423 45.2307 11.8453 45.2307 13.8531V22.66L41.7101 21.9376V13.3219C41.7101 9.04065 44.2279 7.77644 48.1005 6.88407L50.1275 6.54411ZM12.6919 6.58661C14.0788 6.58661 15.7645 7.3515 16.7246 8.73256C17.6848 7.47898 19.285 6.65035 21.2587 6.6291C23.7338 6.59723 26.817 8.14827 26.817 12.8014V22.66L23.2964 21.9376V12.8014C23.2964 11.2397 22.1655 10.1243 20.4906 10.1243C18.8156 10.1243 17.6848 11.2397 17.6848 12.8014V22.66L14.1642 21.9376V12.8014C14.1642 11.2397 13.0333 10.1243 11.3584 10.1243C9.66211 10.1243 8.52059 11.2397 8.52059 12.8014V22.66L5 21.9376V7.60647L8.52059 6.91593V8.54134C9.50208 7.34088 10.9957 6.58661 12.6919 6.58661ZM61.1694 9.91178C58.4382 9.91178 56.6033 11.8453 56.6033 14.7774C56.6033 17.7095 58.4382 19.6748 61.1694 19.6748C63.7191 19.6748 65.4047 17.7095 65.4047 14.7774C65.4047 11.8453 63.7191 9.91178 61.1694 9.91178ZM34.3382 0C35.6184 0 36.4719 0.892379 36.4719 2.23095C36.4719 3.56952 35.6184 4.46189 34.3382 4.46189C33.0047 4.46189 32.1192 3.56952 32.1192 2.23095C32.1192 0.892379 33.0047 0 34.3382 0Z" fill="#13121C"/>
</svg>
