<svg width="75" height="23" viewBox="0 0 75 23" fill="none" xmlns="http://www.w3.org/2000/svg">
<g clip-path="url(#clip0)">
<path d="M17.3725 1.00781C17.509 1.06917 17.5968 1.19712 17.7063 1.29895C17.8847 1.44909 18.0171 1.64754 18.1901 1.8016C18.4049 2.00004 18.5414 2.25202 18.7198 2.47658C19.0306 2.93091 19.3035 3.41659 19.4454 3.94534C19.5914 4.30698 19.6144 4.69996 19.6049 5.08771C19.6144 5.44022 19.513 5.7888 19.3495 6.10606C19.0671 6.58651 18.5549 6.90898 18.0211 7.08132C17.3549 7.23537 16.6198 7.26279 15.9752 6.98862C15.7428 6.86459 15.478 6.78104 15.2901 6.58781C14.8564 6.24314 14.605 5.68305 14.6874 5.14124C14.8158 4.17512 15.4131 3.34609 16.0523 2.63194C16.1117 2.73769 16.0617 2.86172 16.1023 2.97139C16.1577 3.20508 16.2442 3.45184 16.4266 3.62025C16.6509 3.42181 16.8874 3.22336 17.0793 2.99358C17.2522 2.74683 17.3941 2.47266 17.4536 2.18152C17.4671 1.81074 17.5036 1.42298 17.3576 1.07048L17.3725 1.00781Z" fill="#13121C" stroke="#13121C" stroke-width="0.0938"/>
<path d="M9.0089 5.41406C10.0778 5.4232 11.1494 5.40492 12.2183 5.4232C12.2183 6.45068 12.2277 7.47817 12.2142 8.50565C12.9723 8.5187 13.7304 8.50956 14.4926 8.50956C14.502 8.5892 14.5061 8.66884 14.5061 8.74718C14.4966 9.59449 14.5101 10.4366 14.4966 11.2839C13.7345 11.293 12.9764 11.2839 12.2142 11.2878C12.2277 12.8101 12.2102 14.3272 12.2237 15.8482C12.2507 15.98 12.2696 16.1132 12.2642 16.2503C12.2507 16.3743 12.3277 16.4748 12.3561 16.5897C12.4156 16.8548 12.5656 17.0924 12.7399 17.3C12.9953 17.5467 13.3237 17.719 13.6764 17.7935C13.9953 17.8418 14.3155 17.8679 14.6398 17.847C14.6574 17.9005 14.6669 17.9527 14.6669 18.0102C14.6628 18.804 14.6628 19.5978 14.6669 20.3876C14.6669 20.4973 14.6439 20.6083 14.6263 20.714C14.1655 20.714 13.7047 20.7454 13.2426 20.714C12.9683 20.6566 12.6764 20.6827 12.4115 20.5678C11.6764 20.4007 10.9737 20.0469 10.4481 19.5129C9.6751 18.7961 9.26025 17.7817 9.09133 16.7751C9.04539 16.6655 9.07241 16.5375 9.05484 16.4174C8.99133 16.1746 9.01836 15.9187 9.0089 15.6719C9.00485 12.2552 9.00485 8.83204 9.0089 5.41406Z" fill="#13121C" stroke="#13121C" stroke-width="0.0938"/>
<path d="M24.6047 8.27491C24.7966 8.2266 25.002 8.26185 25.1939 8.22138C25.5952 8.17308 25.9925 8.23444 26.3898 8.24749C26.6682 8.24358 26.9371 8.32191 27.2114 8.37544C28.229 8.61305 29.1925 9.13789 29.8911 9.90556C30.0141 10.104 30.2019 10.2502 30.3208 10.4526C30.6181 10.9069 30.814 11.4135 30.9829 11.9253C31.0883 12.3 31.1424 12.6877 31.1924 13.0716C31.2154 13.9228 31.2019 14.7779 31.2059 15.6292C31.2019 17.3277 31.21 19.025 31.2019 20.7235C30.133 20.7104 29.0695 20.7196 28.006 20.7144C27.9965 20.7104 27.9736 20.6922 27.9655 20.683C27.9614 18.3056 27.9655 15.9282 27.9655 13.5546C27.9695 13.2635 27.9155 12.9815 27.8519 12.7034C27.7384 12.4214 27.5911 12.1524 27.3911 11.9227C27.2722 11.7856 27.1087 11.6981 26.9763 11.5793C26.7709 11.4474 26.529 11.3848 26.2966 11.3234C26.1736 11.3143 26.0506 11.3234 25.9358 11.2842C25.4479 11.2529 24.9493 11.2934 24.4926 11.4736C24.1588 11.6276 23.8493 11.8391 23.6291 12.1355C23.2683 12.5506 23.1493 13.1147 23.1588 13.6434C23.1588 15.9987 23.1629 18.3591 23.1588 20.7144C22.0818 20.7235 21.0035 20.7104 19.9265 20.7235C19.9089 18.4518 19.9265 16.1762 19.917 13.9045C19.921 13.6134 19.9129 13.3222 19.9359 13.0311C19.9954 12.8862 19.9535 12.7269 19.9994 12.5859C20.0819 12.048 20.2913 11.5362 20.5251 11.0466C20.7535 10.6184 21.0278 10.2085 21.3832 9.86901C21.6615 9.59615 21.9494 9.30892 22.3007 9.11961C22.9791 8.66266 23.7831 8.38458 24.6047 8.27491Z" fill="#13121C" stroke="#13121C" stroke-width="0.0938"/>
<path d="M62.8625 8.24545C63.2598 8.23631 63.6517 8.16189 64.0489 8.22325C64.2638 8.24936 64.4827 8.24545 64.6976 8.25459C64.7381 8.63842 64.707 9.02618 64.7151 9.41001C64.7151 9.92571 64.7151 10.4375 64.7151 10.9532C64.7151 11.0498 64.7287 11.1516 64.6881 11.2443C64.5827 11.1699 64.4422 11.196 64.3233 11.1647C63.8395 11.1255 63.3422 11.1477 62.8855 11.324C62.3422 11.5041 61.8679 11.888 61.6031 12.3867C61.5247 12.4794 61.5247 12.6113 61.4382 12.7C61.2963 13.1936 61.2868 13.7106 61.2963 14.2171C61.2923 16.387 61.3098 18.5529 61.2868 20.7228C60.2234 20.7097 59.1545 20.7228 58.0869 20.7136C58.0775 20.7045 58.064 20.6875 58.0545 20.6784C58.0545 18.3192 58.0545 15.9587 58.0545 13.5996C58.041 13.3045 58.1099 13.0173 58.1045 12.7262C58.1775 12.5852 58.1599 12.422 58.2045 12.2757C58.4329 11.1595 59.0396 10.1059 59.9626 9.38651C60.1409 9.19198 60.3963 9.09929 60.6058 8.94523C61.2869 8.54442 62.0774 8.3512 62.8625 8.24545Z" fill="#13121C" stroke="#13121C" stroke-width="0.0938"/>
<path d="M15.5428 8.50708C16.6198 8.52536 17.6982 8.50316 18.7752 8.51622C18.7752 12.5517 18.7711 16.5833 18.7752 20.6149C18.7752 20.6541 18.7752 20.7337 18.7117 20.7207C17.6576 20.7207 16.6077 20.7207 15.5523 20.7207C15.5253 20.0548 15.5482 19.3838 15.5388 18.7179C15.5428 15.3169 15.5374 11.912 15.5428 8.50708Z" fill="#13121C" stroke="#13121C" stroke-width="0.0938"/>
<path d="M49.3491 16.6931C49.6234 16.5912 49.8883 16.4594 50.1667 16.3667C50.568 16.2165 50.9613 16.0364 51.3626 15.8862C52.1937 15.5155 53.0517 15.2073 53.8923 14.8588C54.0936 14.753 54.322 14.7047 54.5179 14.5898C54.7422 14.5063 54.9652 14.4305 55.1841 14.3339C55.376 14.2243 55.5949 14.1799 55.7909 14.0833C56.0503 13.9814 56.3017 13.8665 56.5665 13.7738C56.8354 13.6276 57.1368 13.5571 57.407 13.4161C57.48 13.3678 57.5989 13.3809 57.6449 13.2973C57.5679 13.1915 57.6084 13.0597 57.5679 12.9448C57.5084 12.7372 57.4489 12.5348 57.3989 12.3312C57.1935 11.7176 56.8962 11.1314 56.4949 10.6196C56.0071 9.93546 55.3355 9.38451 54.5909 8.97848C54.1017 8.69125 53.5544 8.52806 53.0072 8.38705C52.6693 8.34789 52.345 8.233 52.0031 8.23691C51.6923 8.19775 51.3734 8.17947 51.0667 8.233C50.5234 8.24214 50.0032 8.37008 49.487 8.515C48.587 8.8192 47.7343 9.28267 47.0451 9.9224C46.8397 10.1078 46.6708 10.3232 46.4749 10.5138C46.1695 10.8937 45.8898 11.2946 45.6803 11.7267C45.383 12.3756 45.1006 13.0545 45.0682 13.7738C44.9682 14.1172 44.9992 14.4801 44.9952 14.8326C44.9857 15.0572 45.0222 15.2778 45.0682 15.4946C45.0546 15.7244 45.1452 15.9359 45.1776 16.1565C45.2546 16.6239 45.4695 17.056 45.6668 17.4882C46.206 18.5561 47.0546 19.4818 48.1181 20.0863C48.8167 20.5014 49.5924 20.7965 50.4059 20.9062C51.068 21.008 51.7477 21.025 52.4139 20.9414C52.6423 20.9584 52.8612 20.8618 53.0896 20.8487C54.0625 20.6281 55.0166 20.2312 55.7517 19.5653C55.9706 19.3982 56.176 19.1998 56.3503 18.987C56.6422 18.6997 56.853 18.3525 57.0625 18.0078C57.2638 17.6422 57.4273 17.2532 57.5462 16.8524C57.4827 16.8263 57.4097 16.8341 57.3449 16.8341C56.276 16.838 55.2125 16.8302 54.145 16.8341C54.045 16.8341 54.045 16.9659 53.9801 17.0195C53.7977 17.2754 53.5652 17.4908 53.318 17.6945C52.9626 17.9412 52.5423 18.0744 52.1261 18.1932C52.0166 18.2062 51.9112 18.2023 51.8112 18.2415C51.5558 18.2598 51.295 18.2506 51.0356 18.2454C50.7477 18.1919 50.4599 18.1305 50.1815 18.043C49.7518 17.8315 49.3329 17.5887 49.0086 17.2453C48.9262 17.1487 48.7937 17.073 48.7667 16.9451C48.8397 16.9137 48.9086 16.8654 48.991 16.8524C49.1208 16.8302 49.2208 16.7283 49.3491 16.6931ZM48.0343 14.4619C47.9708 14.3078 48.0302 14.1263 48.0208 13.9631C48.0938 13.7386 48.1167 13.4997 48.2032 13.2751C48.4221 12.7764 48.6924 12.2868 49.0843 11.8951C49.2667 11.7489 49.4221 11.5726 49.6316 11.463C49.787 11.3833 49.937 11.2959 50.0978 11.2241C50.3951 11.1405 50.6815 11.0086 50.9923 11.0086C51.2748 10.9421 51.568 10.9773 51.8545 10.9825C52.6072 11.0844 53.3652 11.3977 53.8544 11.9748C53.9044 12.0896 53.7355 12.0988 53.6666 12.1419C53.3693 12.3011 53.0369 12.3795 52.7396 12.544C52.6072 12.5662 52.4937 12.6458 52.3653 12.685C51.4207 13.0819 50.4572 13.4305 49.5207 13.8443C49.0194 14.0336 48.5221 14.2373 48.0343 14.4619Z" fill="#13121C" stroke="#13121C" stroke-width="0.0938"/>
<path d="M44.6329 3.11842C43.633 3.10928 42.633 3.11842 41.633 3.1145C41.56 3.12364 41.4735 3.09231 41.4141 3.14584C41.4235 5.21908 41.4141 7.29624 41.4181 9.36948C41.4141 9.4439 41.4317 9.51962 41.4006 9.59012C41.3087 9.57707 41.2641 9.49351 41.1952 9.44521C40.7344 9.06137 40.2182 8.73498 39.6425 8.54567C39.2547 8.39945 38.8479 8.32503 38.4371 8.25453C37.9709 8.24539 37.5007 8.23233 37.0304 8.25844C36.9804 8.2715 36.9345 8.28456 36.8845 8.28978C35.8385 8.43078 34.8615 8.90339 34.0588 9.55096C33.6116 9.95699 33.1643 10.38 32.8494 10.8918C32.4792 11.3996 32.2427 11.9819 32.0143 12.5551C31.9089 12.9167 31.8048 13.2744 31.7589 13.6439C31.6724 14.2131 31.7089 14.7954 31.7184 15.3686C31.7413 15.5187 31.7913 15.6597 31.7954 15.8099C31.8778 16.2955 32.0238 16.7721 32.2251 17.2264C32.394 17.6625 32.6683 18.0593 32.9183 18.4562C33.0967 18.6769 33.2697 18.9067 33.4845 19.0999C33.8034 19.4041 34.1197 19.7344 34.521 19.9472C34.9953 20.2958 35.5575 20.5034 36.1047 20.7057C36.3061 20.741 36.4926 20.8507 36.698 20.8559C36.8709 20.8689 37.0318 20.9486 37.2047 20.9394C37.2966 20.9303 37.3777 20.993 37.4736 20.9838C37.9169 20.9969 38.3642 20.9969 38.806 20.9838C38.879 20.9838 38.952 20.9525 39.0304 20.9486C39.3358 20.9525 39.6195 20.8389 39.9155 20.7984C40.3033 20.6613 40.7195 20.5739 41.0803 20.3702C41.6141 20.1326 42.0979 19.7971 42.5316 19.4171C43.0789 18.9589 43.5221 18.3844 43.8505 17.7591C43.9924 17.481 44.1519 17.212 44.2438 16.9118C44.4167 16.4966 44.4951 16.0566 44.5546 15.6192C44.6546 15.2354 44.6235 14.8346 44.6316 14.4377C44.6329 10.6646 44.6329 6.89412 44.6329 3.11842ZM41.3871 15.0618C41.36 15.5292 41.1776 15.9744 40.9627 16.3934C40.6019 17.0501 39.9952 17.5528 39.306 17.8713C39.2006 17.9249 39.0641 17.9196 38.9912 18.0176C38.8628 18.0176 38.7358 18.0215 38.6128 18.0659C38.2196 18.075 37.8142 18.1103 37.4304 18.0045C37.2655 17.9301 37.0831 17.8988 36.9196 17.8152C36.7142 17.7055 36.4818 17.6298 36.3129 17.4627C35.9939 17.246 35.7466 16.9509 35.5237 16.6467C35.3453 16.3517 35.1669 16.0475 35.0859 15.7119C34.994 15.5357 35.0034 15.3372 34.9534 15.1518C34.9399 14.6805 34.9129 14.1949 35.0264 13.7366C35.0764 13.5904 35.1088 13.4363 35.1629 13.2914C35.2953 13.0577 35.3777 12.7979 35.5507 12.5851C35.6426 12.3997 35.8021 12.2626 35.9291 12.1046C36.271 11.726 36.7412 11.4832 37.2169 11.2926C37.3953 11.2534 37.5682 11.1646 37.7561 11.1646C38.1344 11.0719 38.5277 11.1477 38.902 11.2129C39.3952 11.3853 39.883 11.6229 40.2668 11.9754C40.4087 12.1033 40.5128 12.2626 40.6546 12.3906C41.2357 13.1478 41.506 14.1231 41.3871 15.0618Z" fill="#13121C" stroke="#13121C" stroke-width="0.0938"/>
<path d="M62.8339 19.1726C63.2312 19.1726 63.6325 19.1726 64.0298 19.1726C64.0338 19.2614 64.0338 19.3489 64.0298 19.4376C63.8933 19.4559 63.7555 19.4337 63.623 19.4507C63.6041 19.8476 63.623 20.2406 63.6136 20.6375C63.4906 20.6283 63.3663 20.6283 63.2487 20.6335C63.2352 20.3202 63.2393 20.0029 63.2447 19.6896C63.2447 19.6061 63.2622 19.5081 63.1852 19.452C63.0663 19.435 62.9474 19.4559 62.8298 19.4389C62.8258 19.3489 62.8258 19.2601 62.8339 19.1726Z" fill="#13121C" stroke="#13121C" stroke-width="0.0938"/>
<path d="M64.25 19.1764C64.4189 19.1724 64.5879 19.1633 64.7568 19.1855C64.7473 19.3134 64.8568 19.4022 64.8892 19.521C64.9352 19.6712 65.0027 19.8122 65.0487 19.9623C65.0852 20.0289 65.1487 20.0863 65.1257 20.1699C65.2176 19.8252 65.3581 19.5001 65.5 19.1777C65.6595 19.1738 65.8243 19.1685 65.9892 19.1777C65.9987 19.649 65.9892 20.1307 65.9892 20.6021C65.8797 20.6112 65.7703 20.6112 65.6554 20.6021C65.6595 20.2717 65.6554 19.9401 65.6649 19.6137C65.6243 19.649 65.5824 19.6803 65.5514 19.7234C65.4919 20.0237 65.3324 20.2965 65.2541 20.5968C65.1622 20.6099 65.0757 20.6099 64.9852 20.6007C64.9581 20.4336 64.8338 20.2965 64.8338 20.1242C64.7108 19.9793 64.7054 19.7717 64.6095 19.6085C64.546 19.7273 64.596 19.8683 64.5825 19.9963C64.5649 20.2039 64.6054 20.4154 64.5649 20.6229C64.4554 20.6229 64.3325 20.6582 64.2446 20.5838C64.2581 20.1164 64.2446 19.649 64.25 19.1764Z" fill="#13121C" stroke="#13121C" stroke-width="0.0938"/>
</g>
<defs>
<clipPath id="clip0">
<rect width="57" height="20" fill="white" transform="translate(9 1)"/>
</clipPath>
</defs>
</svg>
