<svg width="75" height="23" viewBox="0 0 75 23" fill="none" xmlns="http://www.w3.org/2000/svg">
<path d="M56.7439 6.1715H53.9772V4H49.1986L46.9372 6.1715H44.4201L43.1646 7.37707V6.1715H40.9031V4H32.3519V6.1715H22.04L19.7786 4H15V13.657L17.2614 15.8285L21.0341 18H24.3014V17.5141L25.557 18H31.6525L32.7305 16.7944L32.8693 18H36.8589L36.9423 16.7944L38.3814 18H41.9045L42.1548 16.7944L43.4103 18H47.4333L48.6888 16.7944V18H50.9503L52.7118 16.7944V18H55.2289L59 15.583V8.34809L56.7439 6.1715ZM21.0341 9.79406H18.7726V12.211H21.0341V14.8677H17.7674L16.0059 13.1762V4.96592H18.7726V7.13742H21.0341V9.79406ZM32.3519 13.177L30.5904 14.8684H22.04V7.13742H24.8067V12.2059H25.8126V7.13742H28.5793V12.2059H29.5852V7.13742H32.3527V13.177H32.3519ZM36.1246 14.8677H33.3579V7.13742H36.1246V14.8677ZM36.1246 6.1715H33.3579V4.96592H36.1246V6.1715ZM42.1586 9.79406H39.8919V12.211H42.1533V14.8677H38.8859L37.1297 13.1762V4.96592H39.8911V7.13742H42.1526V9.79479H42.1586V9.79406ZM49.1986 9.79406H45.9312V12.211H49.1986V14.8677H44.9261L43.1646 13.1762V8.82814L44.9261 7.13669H49.1986V9.79406ZM58.0001 14.8677H55.2327V9.79916H52.9712V14.8677H50.2038V4.96592H52.9712V7.13742H56.2379L57.9994 8.82887L58.0001 14.8677Z" fill="#13121C"/>
</svg>
